<svg width="18" height="18" viewBox="0 0 18 18" fill="none" xmlns="http://www.w3.org/2000/svg">
<g id="Frame">
<path id="Vector" fill-rule="evenodd" clip-rule="evenodd" d="M3.75 16.5C2.50736 16.5 1.5 15.4927 1.5 14.25V3.75C1.5 2.50736 2.50736 1.5 3.75 1.5H14.25C15.4927 1.5 16.5 2.50736 16.5 3.75V14.25C16.5 15.4927 15.4927 16.5 14.25 16.5H3.75ZM3 14.25C3 14.6642 3.33579 15 3.75 15H6V7.5H3V14.25ZM12 15H14.25C14.6642 15 15 14.6642 15 14.25V7.5H12V15ZM10.5 7.5V15H7.5V7.5H10.5ZM15 6V3.75C15 3.33579 14.6642 3 14.25 3H3.75C3.33579 3 3 3.33579 3 3.75V6H15Z" fill="#044086"/>
</g>
</svg>
