<svg width="18" height="18" viewBox="0 0 18 18" fill="none" xmlns="http://www.w3.org/2000/svg">
<g id="Group">
<path id="Vector" d="M16.499 15.0001H1.49902V13.5001H2.24902V8.27334C2.24902 4.53234 5.27152 1.50009 8.99902 1.50009C12.7265 1.50009 15.749 4.53234 15.749 8.27334V13.5001H16.499V15.0001ZM3.74902 13.5001H14.249V8.27334C14.249 5.36109 11.8985 3.00009 8.99902 3.00009C6.09952 3.00009 3.74902 5.36109 3.74902 8.27334V13.5001ZM7.12402 15.7501H10.874C10.874 16.2474 10.6765 16.7243 10.3248 17.0759C9.97322 17.4275 9.4963 17.6251 8.99902 17.6251C8.50174 17.6251 8.02483 17.4275 7.6732 17.0759C7.32157 16.7243 7.12402 16.2474 7.12402 15.7501Z" fill="#757575"/>
</g>
</svg>
