<svg width="18" height="18" viewBox="0 0 18 18" fill="none" xmlns="http://www.w3.org/2000/svg">
<g id="ri-more-line" clip-path="url(#clip0_3011_2380)">
<g id="Group">
<path id="Vector" d="M3.375 7.875C2.75625 7.875 2.25 8.38125 2.25 9C2.25 9.61875 2.75625 10.125 3.375 10.125C3.99375 10.125 4.5 9.61875 4.5 9C4.5 8.38125 3.99375 7.875 3.375 7.875ZM14.625 7.875C14.0063 7.875 13.5 8.38125 13.5 9C13.5 9.61875 14.0063 10.125 14.625 10.125C15.2437 10.125 15.75 9.61875 15.75 9C15.75 8.38125 15.2437 7.875 14.625 7.875ZM9 7.875C8.38125 7.875 7.875 8.38125 7.875 9C7.875 9.61875 8.38125 10.125 9 10.125C9.61875 10.125 10.125 9.61875 10.125 9C10.125 8.38125 9.61875 7.875 9 7.875Z" fill="#757575"/>
</g>
</g>
<defs>
<clipPath id="clip0_3011_2380">
<rect width="18" height="18" fill="white"/>
</clipPath>
</defs>
</svg>
