<svg width="14" height="14" viewBox="0 0 14 14" fill="none" xmlns="http://www.w3.org/2000/svg">
<g id="ri-search-line" clip-path="url(#clip0_3011_2374)">
<g id="Group">
<path id="Vector" d="M10.5184 9.69324L13.0168 12.1911L12.1914 13.0165L9.69358 10.5181C8.76417 11.2631 7.60816 11.6684 6.41699 11.6667C3.51899 11.6667 1.16699 9.31466 1.16699 6.41666C1.16699 3.51866 3.51899 1.16666 6.41699 1.16666C9.31499 1.16666 11.667 3.51866 11.667 6.41666C11.6687 7.60782 11.2635 8.76384 10.5184 9.69324ZM9.34824 9.26041C10.0886 8.49909 10.502 7.47857 10.5003 6.41666C10.5003 4.16032 8.67274 2.33332 6.41699 2.33332C4.16066 2.33332 2.33366 4.16032 2.33366 6.41666C2.33366 8.67241 4.16066 10.5 6.41699 10.5C7.47891 10.5017 8.49943 10.0882 9.26074 9.34791L9.34824 9.26041Z" fill="#757575"/>
</g>
</g>
<defs>
<clipPath id="clip0_3011_2374">
<rect width="14" height="14" fill="white"/>
</clipPath>
</defs>
</svg>
